<svg class="rich-terminal" viewBox="0 0 1482 879.5999999999999" xmlns="http://www.w3.org/2000/svg">
    <!-- Generated with Rich https://www.textualize.io -->
    <style>

    @font-face {
        font-family: "Fira Code";
        src: local("FiraCode-Regular"),
                url("https://cdnjs.cloudflare.com/ajax/libs/firacode/6.2.0/woff2/FiraCode-Regular.woff2") format("woff2"),
                url("https://cdnjs.cloudflare.com/ajax/libs/firacode/6.2.0/woff/FiraCode-Regular.woff") format("woff");
        font-style: normal;
        font-weight: 400;
    }
    @font-face {
        font-family: "Fira Code";
        src: local("FiraCode-Bold"),
                url("https://cdnjs.cloudflare.com/ajax/libs/firacode/6.2.0/woff2/FiraCode-Bold.woff2") format("woff2"),
                url("https://cdnjs.cloudflare.com/ajax/libs/firacode/6.2.0/woff/FiraCode-Bold.woff") format("woff");
        font-style: bold;
        font-weight: 700;
    }

    .terminal-865166186-matrix {
        font-family: Fira Code, monospace;
        font-size: 20px;
        line-height: 24.4px;
        font-variant-east-asian: full-width;
    }

    .terminal-865166186-title {
        font-size: 18px;
        font-weight: bold;
        font-family: arial;
    }

    .terminal-865166186-r1 { fill: #c5c8c6 }
.terminal-865166186-r2 { fill: #eaeaea }
.terminal-865166186-r3 { fill: #bdbdbd }
.terminal-865166186-r4 { fill: #9d9d9d }
.terminal-865166186-r5 { fill: #b0b0b0 }
.terminal-865166186-r6 { fill: #9e9e9e }
.terminal-865166186-r7 { fill: #e0e0e0 }
.terminal-865166186-r8 { fill: #a4a4a4 }
.terminal-865166186-r9 { fill: #c3c3c3 }
.terminal-865166186-r10 { fill: #3b3b3b;font-weight: bold }
.terminal-865166186-r11 { fill: #161616;font-weight: bold }
.terminal-865166186-r12 { fill: #f5f5f5 }
.terminal-865166186-r13 { fill: #e1e1e1 }
.terminal-865166186-r14 { fill: #1b1b1b }
.terminal-865166186-r15 { fill: #656565 }
.terminal-865166186-r16 { fill: #121212 }
.terminal-865166186-r17 { fill: #797979 }
.terminal-865166186-r18 { fill: #e2e2e2 }
    </style>

    <defs>
    <clipPath id="terminal-865166186-clip-terminal">
      <rect x="0" y="0" width="1463.0" height="828.5999999999999" />
    </clipPath>
    <clipPath id="terminal-865166186-line-0">
    <rect x="0" y="1.5" width="1464" height="24.65"/>
            </clipPath>
<clipPath id="terminal-865166186-line-1">
    <rect x="0" y="25.9" width="1464" height="24.65"/>
            </clipPath>
<clipPath id="terminal-865166186-line-2">
    <rect x="0" y="50.3" width="1464" height="24.65"/>
            </clipPath>
<clipPath id="terminal-865166186-line-3">
    <rect x="0" y="74.7" width="1464" height="24.65"/>
            </clipPath>
<clipPath id="terminal-865166186-line-4">
    <rect x="0" y="99.1" width="1464" height="24.65"/>
            </clipPath>
<clipPath id="terminal-865166186-line-5">
    <rect x="0" y="123.5" width="1464" height="24.65"/>
            </clipPath>
<clipPath id="terminal-865166186-line-6">
    <rect x="0" y="147.9" width="1464" height="24.65"/>
            </clipPath>
<clipPath id="terminal-865166186-line-7">
    <rect x="0" y="172.3" width="1464" height="24.65"/>
            </clipPath>
<clipPath id="terminal-865166186-line-8">
    <rect x="0" y="196.7" width="1464" height="24.65"/>
            </clipPath>
<clipPath id="terminal-865166186-line-9">
    <rect x="0" y="221.1" width="1464" height="24.65"/>
            </clipPath>
<clipPath id="terminal-865166186-line-10">
    <rect x="0" y="245.5" width="1464" height="24.65"/>
            </clipPath>
<clipPath id="terminal-865166186-line-11">
    <rect x="0" y="269.9" width="1464" height="24.65"/>
            </clipPath>
<clipPath id="terminal-865166186-line-12">
    <rect x="0" y="294.3" width="1464" height="24.65"/>
            </clipPath>
<clipPath id="terminal-865166186-line-13">
    <rect x="0" y="318.7" width="1464" height="24.65"/>
            </clipPath>
<clipPath id="terminal-865166186-line-14">
    <rect x="0" y="343.1" width="1464" height="24.65"/>
            </clipPath>
<clipPath id="terminal-865166186-line-15">
    <rect x="0" y="367.5" width="1464" height="24.65"/>
            </clipPath>
<clipPath id="terminal-865166186-line-16">
    <rect x="0" y="391.9" width="1464" height="24.65"/>
            </clipPath>
<clipPath id="terminal-865166186-line-17">
    <rect x="0" y="416.3" width="1464" height="24.65"/>
            </clipPath>
<clipPath id="terminal-865166186-line-18">
    <rect x="0" y="440.7" width="1464" height="24.65"/>
            </clipPath>
<clipPath id="terminal-865166186-line-19">
    <rect x="0" y="465.1" width="1464" height="24.65"/>
            </clipPath>
<clipPath id="terminal-865166186-line-20">
    <rect x="0" y="489.5" width="1464" height="24.65"/>
            </clipPath>
<clipPath id="terminal-865166186-line-21">
    <rect x="0" y="513.9" width="1464" height="24.65"/>
            </clipPath>
<clipPath id="terminal-865166186-line-22">
    <rect x="0" y="538.3" width="1464" height="24.65"/>
            </clipPath>
<clipPath id="terminal-865166186-line-23">
    <rect x="0" y="562.7" width="1464" height="24.65"/>
            </clipPath>
<clipPath id="terminal-865166186-line-24">
    <rect x="0" y="587.1" width="1464" height="24.65"/>
            </clipPath>
<clipPath id="terminal-865166186-line-25">
    <rect x="0" y="611.5" width="1464" height="24.65"/>
            </clipPath>
<clipPath id="terminal-865166186-line-26">
    <rect x="0" y="635.9" width="1464" height="24.65"/>
            </clipPath>
<clipPath id="terminal-865166186-line-27">
    <rect x="0" y="660.3" width="1464" height="24.65"/>
            </clipPath>
<clipPath id="terminal-865166186-line-28">
    <rect x="0" y="684.7" width="1464" height="24.65"/>
            </clipPath>
<clipPath id="terminal-865166186-line-29">
    <rect x="0" y="709.1" width="1464" height="24.65"/>
            </clipPath>
<clipPath id="terminal-865166186-line-30">
    <rect x="0" y="733.5" width="1464" height="24.65"/>
            </clipPath>
<clipPath id="terminal-865166186-line-31">
    <rect x="0" y="757.9" width="1464" height="24.65"/>
            </clipPath>
<clipPath id="terminal-865166186-line-32">
    <rect x="0" y="782.3" width="1464" height="24.65"/>
            </clipPath>
    </defs>

    <rect fill="#292929" stroke="rgba(255,255,255,0.35)" stroke-width="1" x="1" y="1" width="1480" height="877.6" rx="8"/><text class="terminal-865166186-title" fill="#c5c8c6" text-anchor="middle" x="740" y="27">meshirc</text>
            <g transform="translate(26,22)">
            <circle cx="0" cy="0" r="7" fill="#ff5f57"/>
            <circle cx="22" cy="0" r="7" fill="#febc2e"/>
            <circle cx="44" cy="0" r="7" fill="#28c840"/>
            </g>
        
    <g transform="translate(9, 41)" clip-path="url(#terminal-865166186-clip-terminal)">
    <rect fill="#656565" x="0" y="1.5" width="12.2" height="24.65" shape-rendering="crispEdges"/><rect fill="#656565" x="12.2" y="1.5" width="12.2" height="24.65" shape-rendering="crispEdges"/><rect fill="#656565" x="24.4" y="1.5" width="61" height="24.65" shape-rendering="crispEdges"/><rect fill="#656565" x="85.4" y="1.5" width="12.2" height="24.65" shape-rendering="crispEdges"/><rect fill="#656565" x="97.6" y="1.5" width="475.8" height="24.65" shape-rendering="crispEdges"/><rect fill="#656565" x="573.4" y="1.5" width="85.4" height="24.65" shape-rendering="crispEdges"/><rect fill="#656565" x="658.8" y="1.5" width="36.6" height="24.65" shape-rendering="crispEdges"/><rect fill="#656565" x="695.4" y="1.5" width="170.8" height="24.65" shape-rendering="crispEdges"/><rect fill="#656565" x="866.2" y="1.5" width="475.8" height="24.65" shape-rendering="crispEdges"/><rect fill="#656565" x="1342" y="1.5" width="12.2" height="24.65" shape-rendering="crispEdges"/><rect fill="#656565" x="1354.2" y="1.5" width="0" height="24.65" shape-rendering="crispEdges"/><rect fill="#656565" x="1354.2" y="1.5" width="109.8" height="24.65" shape-rendering="crispEdges"/><rect fill="#1b1b1b" x="0" y="25.9" width="73.2" height="24.65" shape-rendering="crispEdges"/><rect fill="#1b1b1b" x="73.2" y="25.9" width="207.4" height="24.65" shape-rendering="crispEdges"/><rect fill="#1b1b1b" x="280.6" y="25.9" width="12.2" height="24.65" shape-rendering="crispEdges"/><rect fill="#1e1e1e" x="292.8" y="25.9" width="927.2" height="24.65" shape-rendering="crispEdges"/><rect fill="#1e1e1e" x="1220" y="25.9" width="219.6" height="24.65" shape-rendering="crispEdges"/><rect fill="#000000" x="1439.6" y="25.9" width="24.4" height="24.65" shape-rendering="crispEdges"/><rect fill="#1b1b1b" x="0" y="50.3" width="158.6" height="24.65" shape-rendering="crispEdges"/><rect fill="#1b1b1b" x="158.6" y="50.3" width="122" height="24.65" shape-rendering="crispEdges"/><rect fill="#1b1b1b" x="280.6" y="50.3" width="12.2" height="24.65" shape-rendering="crispEdges"/><rect fill="#1e1e1e" x="292.8" y="50.3" width="85.4" height="24.65" shape-rendering="crispEdges"/><rect fill="#1e1e1e" x="378.2" y="50.3" width="12.2" height="24.65" shape-rendering="crispEdges"/><rect fill="#1e1e1e" x="390.4" y="50.3" width="134.2" height="24.65" shape-rendering="crispEdges"/><rect fill="#1e1e1e" x="524.6" y="50.3" width="915" height="24.65" shape-rendering="crispEdges"/><rect fill="#000000" x="1439.6" y="50.3" width="24.4" height="24.65" shape-rendering="crispEdges"/><rect fill="#1b1b1b" x="0" y="74.7" width="97.6" height="24.65" shape-rendering="crispEdges"/><rect fill="#1b1b1b" x="97.6" y="74.7" width="183" height="24.65" shape-rendering="crispEdges"/><rect fill="#1b1b1b" x="280.6" y="74.7" width="12.2" height="24.65" shape-rendering="crispEdges"/><rect fill="#1e1e1e" x="292.8" y="74.7" width="85.4" height="24.65" shape-rendering="crispEdges"/><rect fill="#1e1e1e" x="378.2" y="74.7" width="12.2" height="24.65" shape-rendering="crispEdges"/><rect fill="#1e1e1e" x="390.4" y="74.7" width="134.2" height="24.65" shape-rendering="crispEdges"/><rect fill="#1e1e1e" x="524.6" y="74.7" width="12.2" height="24.65" shape-rendering="crispEdges"/><rect fill="#1e1e1e" x="536.8" y="74.7" width="195.2" height="24.65" shape-rendering="crispEdges"/><rect fill="#1e1e1e" x="732" y="74.7" width="707.6" height="24.65" shape-rendering="crispEdges"/><rect fill="#000000" x="1439.6" y="74.7" width="24.4" height="24.65" shape-rendering="crispEdges"/><rect fill="#b0b0b0" x="0" y="99.1" width="170.8" height="24.65" shape-rendering="crispEdges"/><rect fill="#b0b0b0" x="170.8" y="99.1" width="109.8" height="24.65" shape-rendering="crispEdges"/><rect fill="#1b1b1b" x="280.6" y="99.1" width="12.2" height="24.65" shape-rendering="crispEdges"/><rect fill="#1e1e1e" x="292.8" y="99.1" width="85.4" height="24.65" shape-rendering="crispEdges"/><rect fill="#1e1e1e" x="378.2" y="99.1" width="12.2" height="24.65" shape-rendering="crispEdges"/><rect fill="#1e1e1e" x="390.4" y="99.1" width="48.8" height="24.65" shape-rendering="crispEdges"/><rect fill="#1e1e1e" x="439.2" y="99.1" width="1000.4" height="24.65" shape-rendering="crispEdges"/><rect fill="#000000" x="1439.6" y="99.1" width="24.4" height="24.65" shape-rendering="crispEdges"/><rect fill="#1b1b1b" x="0" y="123.5" width="146.4" height="24.65" shape-rendering="crispEdges"/><rect fill="#1b1b1b" x="146.4" y="123.5" width="134.2" height="24.65" shape-rendering="crispEdges"/><rect fill="#1b1b1b" x="280.6" y="123.5" width="12.2" height="24.65" shape-rendering="crispEdges"/><rect fill="#1e1e1e" x="292.8" y="123.5" width="1146.8" height="24.65" shape-rendering="crispEdges"/><rect fill="#000000" x="1439.6" y="123.5" width="24.4" height="24.65" shape-rendering="crispEdges"/><rect fill="#1b1b1b" x="0" y="147.9" width="36.6" height="24.65" shape-rendering="crispEdges"/><rect fill="#1b1b1b" x="36.6" y="147.9" width="244" height="24.65" shape-rendering="crispEdges"/><rect fill="#1b1b1b" x="280.6" y="147.9" width="12.2" height="24.65" shape-rendering="crispEdges"/><rect fill="#1e1e1e" x="292.8" y="147.9" width="1146.8" height="24.65" shape-rendering="crispEdges"/><rect fill="#000000" x="1439.6" y="147.9" width="24.4" height="24.65" shape-rendering="crispEdges"/><rect fill="#1b1b1b" x="0" y="172.3" width="122" height="24.65" shape-rendering="crispEdges"/><rect fill="#1b1b1b" x="122" y="172.3" width="158.6" height="24.65" shape-rendering="crispEdges"/><rect fill="#1b1b1b" x="280.6" y="172.3" width="12.2" height="24.65" shape-rendering="crispEdges"/><rect fill="#1e1e1e" x="292.8" y="172.3" width="1146.8" height="24.65" shape-rendering="crispEdges"/><rect fill="#000000" x="1439.6" y="172.3" width="24.4" height="24.65" shape-rendering="crispEdges"/><rect fill="#1b1b1b" x="0" y="196.7" width="280.6" height="24.65" shape-rendering="crispEdges"/><rect fill="#1b1b1b" x="280.6" y="196.7" width="12.2" height="24.65" shape-rendering="crispEdges"/><rect fill="#1e1e1e" x="292.8" y="196.7" width="1146.8" height="24.65" shape-rendering="crispEdges"/><rect fill="#000000" x="1439.6" y="196.7" width="24.4" height="24.65" shape-rendering="crispEdges"/><rect fill="#1b1b1b" x="0" y="221.1" width="280.6" height="24.65" shape-rendering="crispEdges"/><rect fill="#1b1b1b" x="280.6" y="221.1" width="12.2" height="24.65" shape-rendering="crispEdges"/><rect fill="#1e1e1e" x="292.8" y="221.1" width="1146.8" height="24.65" shape-rendering="crispEdges"/><rect fill="#000000" x="1439.6" y="221.1" width="24.4" height="24.65" shape-rendering="crispEdges"/><rect fill="#1b1b1b" x="0" y="245.5" width="280.6" height="24.65" shape-rendering="crispEdges"/><rect fill="#1b1b1b" x="280.6" y="245.5" width="12.2" height="24.65" shape-rendering="crispEdges"/><rect fill="#1e1e1e" x="292.8" y="245.5" width="1146.8" height="24.65" shape-rendering="crispEdges"/><rect fill="#000000" x="1439.6" y="245.5" width="24.4" height="24.65" shape-rendering="crispEdges"/><rect fill="#1b1b1b" x="0" y="269.9" width="280.6" height="24.65" shape-rendering="crispEdges"/><rect fill="#1b1b1b" x="280.6" y="269.9" width="12.2" height="24.65" shape-rendering="crispEdges"/><rect fill="#1e1e1e" x="292.8" y="269.9" width="1146.8" height="24.65" shape-rendering="crispEdges"/><rect fill="#000000" x="1439.6" y="269.9" width="24.4" height="24.65" shape-rendering="crispEdges"/><rect fill="#1b1b1b" x="0" y="294.3" width="280.6" height="24.65" shape-rendering="crispEdges"/><rect fill="#1b1b1b" x="280.6" y="294.3" width="12.2" height="24.65" shape-rendering="crispEdges"/><rect fill="#1e1e1e" x="292.8" y="294.3" width="1146.8" height="24.65" shape-rendering="crispEdges"/><rect fill="#000000" x="1439.6" y="294.3" width="24.4" height="24.65" shape-rendering="crispEdges"/><rect fill="#1b1b1b" x="0" y="318.7" width="280.6" height="24.65" shape-rendering="crispEdges"/><rect fill="#1b1b1b" x="280.6" y="318.7" width="12.2" height="24.65" shape-rendering="crispEdges"/><rect fill="#1e1e1e" x="292.8" y="318.7" width="1146.8" height="24.65" shape-rendering="crispEdges"/><rect fill="#000000" x="1439.6" y="318.7" width="24.4" height="24.65" shape-rendering="crispEdges"/><rect fill="#1b1b1b" x="0" y="343.1" width="280.6" height="24.65" shape-rendering="crispEdges"/><rect fill="#1b1b1b" x="280.6" y="343.1" width="12.2" height="24.65" shape-rendering="crispEdges"/><rect fill="#1e1e1e" x="292.8" y="343.1" width="1146.8" height="24.65" shape-rendering="crispEdges"/><rect fill="#000000" x="1439.6" y="343.1" width="24.4" height="24.65" shape-rendering="crispEdges"/><rect fill="#1b1b1b" x="0" y="367.5" width="280.6" height="24.65" shape-rendering="crispEdges"/><rect fill="#1b1b1b" x="280.6" y="367.5" width="12.2" height="24.65" shape-rendering="crispEdges"/><rect fill="#1e1e1e" x="292.8" y="367.5" width="1146.8" height="24.65" shape-rendering="crispEdges"/><rect fill="#000000" x="1439.6" y="367.5" width="24.4" height="24.65" shape-rendering="crispEdges"/><rect fill="#1b1b1b" x="0" y="391.9" width="280.6" height="24.65" shape-rendering="crispEdges"/><rect fill="#1b1b1b" x="280.6" y="391.9" width="12.2" height="24.65" shape-rendering="crispEdges"/><rect fill="#1e1e1e" x="292.8" y="391.9" width="1146.8" height="24.65" shape-rendering="crispEdges"/><rect fill="#000000" x="1439.6" y="391.9" width="24.4" height="24.65" shape-rendering="crispEdges"/><rect fill="#1b1b1b" x="0" y="416.3" width="280.6" height="24.65" shape-rendering="crispEdges"/><rect fill="#1b1b1b" x="280.6" y="416.3" width="12.2" height="24.65" shape-rendering="crispEdges"/><rect fill="#1e1e1e" x="292.8" y="416.3" width="1146.8" height="24.65" shape-rendering="crispEdges"/><rect fill="#000000" x="1439.6" y="416.3" width="24.4" height="24.65" shape-rendering="crispEdges"/><rect fill="#1b1b1b" x="0" y="440.7" width="280.6" height="24.65" shape-rendering="crispEdges"/><rect fill="#1b1b1b" x="280.6" y="440.7" width="12.2" height="24.65" shape-rendering="crispEdges"/><rect fill="#1e1e1e" x="292.8" y="440.7" width="1146.8" height="24.65" shape-rendering="crispEdges"/><rect fill="#000000" x="1439.6" y="440.7" width="24.4" height="24.65" shape-rendering="crispEdges"/><rect fill="#1b1b1b" x="0" y="465.1" width="280.6" height="24.65" shape-rendering="crispEdges"/><rect fill="#1b1b1b" x="280.6" y="465.1" width="12.2" height="24.65" shape-rendering="crispEdges"/><rect fill="#1e1e1e" x="292.8" y="465.1" width="1146.8" height="24.65" shape-rendering="crispEdges"/><rect fill="#000000" x="1439.6" y="465.1" width="24.4" height="24.65" shape-rendering="crispEdges"/><rect fill="#1b1b1b" x="0" y="489.5" width="280.6" height="24.65" shape-rendering="crispEdges"/><rect fill="#1b1b1b" x="280.6" y="489.5" width="12.2" height="24.65" shape-rendering="crispEdges"/><rect fill="#1e1e1e" x="292.8" y="489.5" width="1146.8" height="24.65" shape-rendering="crispEdges"/><rect fill="#000000" x="1439.6" y="489.5" width="24.4" height="24.65" shape-rendering="crispEdges"/><rect fill="#1b1b1b" x="0" y="513.9" width="280.6" height="24.65" shape-rendering="crispEdges"/><rect fill="#1b1b1b" x="280.6" y="513.9" width="12.2" height="24.65" shape-rendering="crispEdges"/><rect fill="#1e1e1e" x="292.8" y="513.9" width="1146.8" height="24.65" shape-rendering="crispEdges"/><rect fill="#000000" x="1439.6" y="513.9" width="24.4" height="24.65" shape-rendering="crispEdges"/><rect fill="#1b1b1b" x="0" y="538.3" width="280.6" height="24.65" shape-rendering="crispEdges"/><rect fill="#1b1b1b" x="280.6" y="538.3" width="12.2" height="24.65" shape-rendering="crispEdges"/><rect fill="#1e1e1e" x="292.8" y="538.3" width="1146.8" height="24.65" shape-rendering="crispEdges"/><rect fill="#000000" x="1439.6" y="538.3" width="24.4" height="24.65" shape-rendering="crispEdges"/><rect fill="#1b1b1b" x="0" y="562.7" width="280.6" height="24.65" shape-rendering="crispEdges"/><rect fill="#1b1b1b" x="280.6" y="562.7" width="12.2" height="24.65" shape-rendering="crispEdges"/><rect fill="#1e1e1e" x="292.8" y="562.7" width="1146.8" height="24.65" shape-rendering="crispEdges"/><rect fill="#000000" x="1439.6" y="562.7" width="24.4" height="24.65" shape-rendering="crispEdges"/><rect fill="#1b1b1b" x="0" y="587.1" width="280.6" height="24.65" shape-rendering="crispEdges"/><rect fill="#1b1b1b" x="280.6" y="587.1" width="12.2" height="24.65" shape-rendering="crispEdges"/><rect fill="#1e1e1e" x="292.8" y="587.1" width="1146.8" height="24.65" shape-rendering="crispEdges"/><rect fill="#000000" x="1439.6" y="587.1" width="24.4" height="24.65" shape-rendering="crispEdges"/><rect fill="#1b1b1b" x="0" y="611.5" width="280.6" height="24.65" shape-rendering="crispEdges"/><rect fill="#1b1b1b" x="280.6" y="611.5" width="12.2" height="24.65" shape-rendering="crispEdges"/><rect fill="#1e1e1e" x="292.8" y="611.5" width="1146.8" height="24.65" shape-rendering="crispEdges"/><rect fill="#000000" x="1439.6" y="611.5" width="24.4" height="24.65" shape-rendering="crispEdges"/><rect fill="#1b1b1b" x="0" y="635.9" width="280.6" height="24.65" shape-rendering="crispEdges"/><rect fill="#1b1b1b" x="280.6" y="635.9" width="12.2" height="24.65" shape-rendering="crispEdges"/><rect fill="#1e1e1e" x="292.8" y="635.9" width="1146.8" height="24.65" shape-rendering="crispEdges"/><rect fill="#000000" x="1439.6" y="635.9" width="24.4" height="24.65" shape-rendering="crispEdges"/><rect fill="#1b1b1b" x="0" y="660.3" width="280.6" height="24.65" shape-rendering="crispEdges"/><rect fill="#1b1b1b" x="280.6" y="660.3" width="12.2" height="24.65" shape-rendering="crispEdges"/><rect fill="#1e1e1e" x="292.8" y="660.3" width="1146.8" height="24.65" shape-rendering="crispEdges"/><rect fill="#000000" x="1439.6" y="660.3" width="24.4" height="24.65" shape-rendering="crispEdges"/><rect fill="#1b1b1b" x="0" y="684.7" width="280.6" height="24.65" shape-rendering="crispEdges"/><rect fill="#1b1b1b" x="280.6" y="684.7" width="12.2" height="24.65" shape-rendering="crispEdges"/><rect fill="#1e1e1e" x="292.8" y="684.7" width="1146.8" height="24.65" shape-rendering="crispEdges"/><rect fill="#000000" x="1439.6" y="684.7" width="24.4" height="24.65" shape-rendering="crispEdges"/><rect fill="#1b1b1b" x="0" y="709.1" width="280.6" height="24.65" shape-rendering="crispEdges"/><rect fill="#1b1b1b" x="280.6" y="709.1" width="12.2" height="24.65" shape-rendering="crispEdges"/><rect fill="#1e1e1e" x="292.8" y="709.1" width="1146.8" height="24.65" shape-rendering="crispEdges"/><rect fill="#000000" x="1439.6" y="709.1" width="24.4" height="24.65" shape-rendering="crispEdges"/><rect fill="#1b1b1b" x="0" y="733.5" width="122" height="24.65" shape-rendering="crispEdges"/><rect fill="#e1e1e1" x="122" y="733.5" width="122" height="24.65" shape-rendering="crispEdges"/><rect fill="#1b1b1b" x="244" y="733.5" width="195.2" height="24.65" shape-rendering="crispEdges"/><rect fill="#1b1b1b" x="439.2" y="733.5" width="1024.8" height="24.65" shape-rendering="crispEdges"/><rect fill="#272727" x="0" y="757.9" width="1464" height="24.65" shape-rendering="crispEdges"/><rect fill="#656565" x="0" y="782.3" width="12.2" height="24.65" shape-rendering="crispEdges"/><rect fill="#272727" x="12.2" y="782.3" width="12.2" height="24.65" shape-rendering="crispEdges"/><rect fill="#e0e0e0" x="24.4" y="782.3" width="12.2" height="24.65" shape-rendering="crispEdges"/><rect fill="#272727" x="36.6" y="782.3" width="658.8" height="24.65" shape-rendering="crispEdges"/><rect fill="#272727" x="695.4" y="782.3" width="744.2" height="24.65" shape-rendering="crispEdges"/><rect fill="#272727" x="1439.6" y="782.3" width="12.2" height="24.65" shape-rendering="crispEdges"/><rect fill="#121212" x="1451.8" y="782.3" width="12.2" height="24.65" shape-rendering="crispEdges"/><rect fill="#656565" x="0" y="806.7" width="12.2" height="24.65" shape-rendering="crispEdges"/><rect fill="#272727" x="12.2" y="806.7" width="1439.6" height="24.65" shape-rendering="crispEdges"/><rect fill="#121212" x="1451.8" y="806.7" width="12.2" height="24.65" shape-rendering="crispEdges"/>
    <g class="terminal-865166186-matrix">
    <text class="terminal-865166186-r2" x="12.2" y="20" textLength="12.2" clip-path="url(#terminal-865166186-line-0)">⭘</text><text class="terminal-865166186-r2" x="573.4" y="20" textLength="85.4" clip-path="url(#terminal-865166186-line-0)">meshirc</text><text class="terminal-865166186-r3" x="658.8" y="20" textLength="36.6" clip-path="url(#terminal-865166186-line-0)">&#160;—&#160;</text><text class="terminal-865166186-r3" x="695.4" y="20" textLength="170.8" clip-path="url(#terminal-865166186-line-0)">node:!00000001</text><text class="terminal-865166186-r1" x="1464" y="20" textLength="12.2" clip-path="url(#terminal-865166186-line-0)">
</text><text class="terminal-865166186-r4" x="0" y="44.4" textLength="73.2" clip-path="url(#terminal-865166186-line-1)">Status</text><text class="terminal-865166186-r5" x="280.6" y="44.4" textLength="12.2" clip-path="url(#terminal-865166186-line-1)">│</text><text class="terminal-865166186-r6" x="292.8" y="44.4" textLength="927.2" clip-path="url(#terminal-865166186-line-1)">[11:41]&#160;-*-&#160;#primary:&#160;type&#160;a&#160;message&#160;and&#160;press&#160;Enter;&#160;use&#160;/win&#160;1&#160;for&#160;console</text><text class="terminal-865166186-r1" x="1464" y="44.4" textLength="12.2" clip-path="url(#terminal-865166186-line-1)">
</text><text class="terminal-865166186-r7" x="0" y="68.8" textLength="158.6" clip-path="url(#terminal-865166186-line-2)">[1]&#160;:&#160;console</text><text class="terminal-865166186-r5" x="280.6" y="68.8" textLength="12.2" clip-path="url(#terminal-865166186-line-2)">│</text><text class="terminal-865166186-r6" x="292.8" y="68.8" textLength="85.4" clip-path="url(#terminal-865166186-line-2)">[20:14]</text><text class="terminal-865166186-r8" x="390.4" y="68.8" textLength="134.2" clip-path="url(#terminal-865166186-line-2)">&lt;!00000002&gt;</text><text class="terminal-865166186-r7" x="524.6" y="68.8" textLength="915" clip-path="url(#terminal-865166186-line-2)">&#160;hello&#160;from&#160;the&#160;hill&#160;node&#160;&#160;&#160;&#160;&#160;&#160;&#160;&#160;&#160;&#160;&#160;&#160;&#160;&#160;&#160;&#160;&#160;&#160;&#160;&#160;&#160;&#160;&#160;&#160;&#160;&#160;&#160;&#160;&#160;&#160;&#160;&#160;&#160;&#160;&#160;&#160;&#160;&#160;&#160;&#160;&#160;&#160;&#160;&#160;&#160;&#160;&#160;&#160;&#160;&#160;</text><text class="terminal-865166186-r1" x="1464" y="68.8" textLength="12.2" clip-path="url(#terminal-865166186-line-2)">
</text><text class="terminal-865166186-r4" x="0" y="93.2" textLength="97.6" clip-path="url(#terminal-865166186-line-3)">Channels</text><text class="terminal-865166186-r5" x="280.6" y="93.2" textLength="12.2" clip-path="url(#terminal-865166186-line-3)">│</text><text class="terminal-865166186-r6" x="292.8" y="93.2" textLength="85.4" clip-path="url(#terminal-865166186-line-3)">[20:14]</text><text class="terminal-865166186-r9" x="390.4" y="93.2" textLength="134.2" clip-path="url(#terminal-865166186-line-3)">&lt;!00000003&gt;</text><text class="terminal-865166186-r10" x="536.8" y="93.2" textLength="195.2" clip-path="url(#terminal-865166186-line-3)">ME&#160;can&#160;you&#160;copy?</text><text class="terminal-865166186-r1" x="1464" y="93.2" textLength="12.2" clip-path="url(#terminal-865166186-line-3)">
</text><text class="terminal-865166186-r11" x="0" y="117.6" textLength="170.8" clip-path="url(#terminal-865166186-line-4)">[2]&#160;&#160;&#160;#primary</text><text class="terminal-865166186-r5" x="280.6" y="117.6" textLength="12.2" clip-path="url(#terminal-865166186-line-4)">│</text><text class="terminal-865166186-r6" x="292.8" y="117.6" textLength="85.4" clip-path="url(#terminal-865166186-line-4)">[11:41]</text><text class="terminal-865166186-r12" x="390.4" y="117.6" textLength="48.8" clip-path="url(#terminal-865166186-line-4)">&lt;me&gt;</text><text class="terminal-865166186-r7" x="439.2" y="117.6" textLength="1000.4" clip-path="url(#terminal-865166186-line-4)">&#160;roger&#160;&#160;&#160;&#160;&#160;&#160;&#160;&#160;&#160;&#160;&#160;&#160;&#160;&#160;&#160;&#160;&#160;&#160;&#160;&#160;&#160;&#160;&#160;&#160;&#160;&#160;&#160;&#160;&#160;&#160;&#160;&#160;&#160;&#160;&#160;&#160;&#160;&#160;&#160;&#160;&#160;&#160;&#160;&#160;&#160;&#160;&#160;&#160;&#160;&#160;&#160;&#160;&#160;&#160;&#160;&#160;&#160;&#160;&#160;&#160;&#160;&#160;&#160;&#160;&#160;&#160;&#160;&#160;&#160;&#160;&#160;&#160;&#160;&#160;&#160;&#160;</text><text class="terminal-865166186-r1" x="1464" y="117.6" textLength="12.2" clip-path="url(#terminal-865166186-line-4)">
</text><text class="terminal-865166186-r7" x="0" y="142" textLength="146.4" clip-path="url(#terminal-865166186-line-5)">[3]&#160;&#160;&#160;#local</text><text class="terminal-865166186-r5" x="280.6" y="142" textLength="12.2" clip-path="url(#terminal-865166186-line-5)">│</text><text class="terminal-865166186-r1" x="1464" y="142" textLength="12.2" clip-path="url(#terminal-865166186-line-5)">
</text><text class="terminal-865166186-r4" x="0" y="166.4" textLength="36.6" clip-path="url(#terminal-865166186-line-6)">DMs</text><text class="terminal-865166186-r5" x="280.6" y="166.4" textLength="12.2" clip-path="url(#terminal-865166186-line-6)">│</text><text class="terminal-865166186-r1" x="1464" y="166.4" textLength="12.2" clip-path="url(#terminal-865166186-line-6)">
</text><text class="terminal-865166186-r7" x="0" y="190.8" textLength="122" clip-path="url(#terminal-865166186-line-7)">[4]&#160;:&#160;@BOB</text><text class="terminal-865166186-r5" x="280.6" y="190.8" textLength="12.2" clip-path="url(#terminal-865166186-line-7)">│</text><text class="terminal-865166186-r1" x="1464" y="190.8" textLength="12.2" clip-path="url(#terminal-865166186-line-7)">
</text><text class="terminal-865166186-r5" x="280.6" y="215.2" textLength="12.2" clip-path="url(#terminal-865166186-line-8)">│</text><text class="terminal-865166186-r1" x="1464" y="215.2" textLength="12.2" clip-path="url(#terminal-865166186-line-8)">
</text><text class="terminal-865166186-r5" x="280.6" y="239.6" textLength="12.2" clip-path="url(#terminal-865166186-line-9)">│</text><text class="terminal-865166186-r1" x="1464" y="239.6" textLength="12.2" clip-path="url(#terminal-865166186-line-9)">
</text><text class="terminal-865166186-r5" x="280.6" y="264" textLength="12.2" clip-path="url(#terminal-865166186-line-10)">│</text><text class="terminal-865166186-r1" x="1464" y="264" textLength="12.2" clip-path="url(#terminal-865166186-line-10)">
</text><text class="terminal-865166186-r5" x="280.6" y="288.4" textLength="12.2" clip-path="url(#terminal-865166186-line-11)">│</text><text class="terminal-865166186-r1" x="1464" y="288.4" textLength="12.2" clip-path="url(#terminal-865166186-line-11)">
</text><text class="terminal-865166186-r5" x="280.6" y="312.8" textLength="12.2" clip-path="url(#terminal-865166186-line-12)">│</text><text class="terminal-865166186-r1" x="1464" y="312.8" textLength="12.2" clip-path="url(#terminal-865166186-line-12)">
</text><text class="terminal-865166186-r5" x="280.6" y="337.2" textLength="12.2" clip-path="url(#terminal-865166186-line-13)">│</text><text class="terminal-865166186-r1" x="1464" y="337.2" textLength="12.2" clip-path="url(#terminal-865166186-line-13)">
</text><text class="terminal-865166186-r5" x="280.6" y="361.6" textLength="12.2" clip-path="url(#terminal-865166186-line-14)">│</text><text class="terminal-865166186-r1" x="1464" y="361.6" textLength="12.2" clip-path="url(#terminal-865166186-line-14)">
</text><text class="terminal-865166186-r5" x="280.6" y="386" textLength="12.2" clip-path="url(#terminal-865166186-line-15)">│</text><text class="terminal-865166186-r1" x="1464" y="386" textLength="12.2" clip-path="url(#terminal-865166186-line-15)">
</text><text class="terminal-865166186-r5" x="280.6" y="410.4" textLength="12.2" clip-path="url(#terminal-865166186-line-16)">│</text><text class="terminal-865166186-r1" x="1464" y="410.4" textLength="12.2" clip-path="url(#terminal-865166186-line-16)">
</text><text class="terminal-865166186-r5" x="280.6" y="434.8" textLength="12.2" clip-path="url(#terminal-865166186-line-17)">│</text><text class="terminal-865166186-r1" x="1464" y="434.8" textLength="12.2" clip-path="url(#terminal-865166186-line-17)">
</text><text class="terminal-865166186-r5" x="280.6" y="459.2" textLength="12.2" clip-path="url(#terminal-865166186-line-18)">│</text><text class="terminal-865166186-r1" x="1464" y="459.2" textLength="12.2" clip-path="url(#terminal-865166186-line-18)">
</text><text class="terminal-865166186-r5" x="280.6" y="483.6" textLength="12.2" clip-path="url(#terminal-865166186-line-19)">│</text><text class="terminal-865166186-r1" x="1464" y="483.6" textLength="12.2" clip-path="url(#terminal-865166186-line-19)">
</text><text class="terminal-865166186-r5" x="280.6" y="508" textLength="12.2" clip-path="url(#terminal-865166186-line-20)">│</text><text class="terminal-865166186-r1" x="1464" y="508" textLength="12.2" clip-path="url(#terminal-865166186-line-20)">
</text><text class="terminal-865166186-r5" x="280.6" y="532.4" textLength="12.2" clip-path="url(#terminal-865166186-line-21)">│</text><text class="terminal-865166186-r1" x="1464" y="532.4" textLength="12.2" clip-path="url(#terminal-865166186-line-21)">
</text><text class="terminal-865166186-r5" x="280.6" y="556.8" textLength="12.2" clip-path="url(#terminal-865166186-line-22)">│</text><text class="terminal-865166186-r1" x="1464" y="556.8" textLength="12.2" clip-path="url(#terminal-865166186-line-22)">
</text><text class="terminal-865166186-r5" x="280.6" y="581.2" textLength="12.2" clip-path="url(#terminal-865166186-line-23)">│</text><text class="terminal-865166186-r1" x="1464" y="581.2" textLength="12.2" clip-path="url(#terminal-865166186-line-23)">
</text><text class="terminal-865166186-r5" x="280.6" y="605.6" textLength="12.2" clip-path="url(#terminal-865166186-line-24)">│</text><text class="terminal-865166186-r1" x="1464" y="605.6" textLength="12.2" clip-path="url(#terminal-865166186-line-24)">
</text><text class="terminal-865166186-r5" x="280.6" y="630" textLength="12.2" clip-path="url(#terminal-865166186-line-25)">│</text><text class="terminal-865166186-r1" x="1464" y="630" textLength="12.2" clip-path="url(#terminal-865166186-line-25)">
</text><text class="terminal-865166186-r5" x="280.6" y="654.4" textLength="12.2" clip-path="url(#terminal-865166186-line-26)">│</text><text class="terminal-865166186-r1" x="1464" y="654.4" textLength="12.2" clip-path="url(#terminal-865166186-line-26)">
</text><text class="terminal-865166186-r5" x="280.6" y="678.8" textLength="12.2" clip-path="url(#terminal-865166186-line-27)">│</text><text class="terminal-865166186-r1" x="1464" y="678.8" textLength="12.2" clip-path="url(#terminal-865166186-line-27)">
</text><text class="terminal-865166186-r5" x="280.6" y="703.2" textLength="12.2" clip-path="url(#terminal-865166186-line-28)">│</text><text class="terminal-865166186-r1" x="1464" y="703.2" textLength="12.2" clip-path="url(#terminal-865166186-line-28)">
</text><text class="terminal-865166186-r5" x="280.6" y="727.6" textLength="12.2" clip-path="url(#terminal-865166186-line-29)">│</text><text class="terminal-865166186-r1" x="1464" y="727.6" textLength="12.2" clip-path="url(#terminal-865166186-line-29)">
</text><text class="terminal-865166186-r13" x="0" y="752" textLength="122" clip-path="url(#terminal-865166186-line-30)">1:console&#160;</text><text class="terminal-865166186-r14" x="122" y="752" textLength="122" clip-path="url(#terminal-865166186-line-30)">2.#primary</text><text class="terminal-865166186-r13" x="244" y="752" textLength="195.2" clip-path="url(#terminal-865166186-line-30)">&#160;3.#local&#160;4:@BOB</text><text class="terminal-865166186-r1" x="1464" y="752" textLength="12.2" clip-path="url(#terminal-865166186-line-30)">
</text><text class="terminal-865166186-r15" x="0" y="776.4" textLength="1464" clip-path="url(#terminal-865166186-line-31)">┌──────────────────────────────────────────────────────────────────────────────────────────────────────────────────────┐</text><text class="terminal-865166186-r1" x="1464" y="776.4" textLength="12.2" clip-path="url(#terminal-865166186-line-31)">
</text><text class="terminal-865166186-r16" x="0" y="800.8" textLength="12.2" clip-path="url(#terminal-865166186-line-32)">▊</text><text class="terminal-865166186-r16" x="24.4" y="800.8" textLength="12.2" clip-path="url(#terminal-865166186-line-32)">T</text><text class="terminal-865166186-r17" x="36.6" y="800.8" textLength="658.8" clip-path="url(#terminal-865166186-line-32)">ype&#160;here&#160;for&#160;#primary;&#160;commands:&#160;/win&#160;2,&#160;/nodes,&#160;/help</text><text class="terminal-865166186-r15" x="1451.8" y="800.8" textLength="12.2" clip-path="url(#terminal-865166186-line-32)">▎</text><text class="terminal-865166186-r1" x="1464" y="800.8" textLength="12.2" clip-path="url(#terminal-865166186-line-32)">
</text><text class="terminal-865166186-r16" x="0" y="825.2" textLength="12.2" clip-path="url(#terminal-865166186-line-33)">▊</text><text class="terminal-865166186-r15" x="12.2" y="825.2" textLength="1439.6" clip-path="url(#terminal-865166186-line-33)">▁▁▁▁▁▁▁▁▁▁▁▁▁▁▁▁▁▁▁▁▁▁▁▁▁▁▁▁▁▁▁▁▁▁▁▁▁▁▁▁▁▁▁▁▁▁▁▁▁▁▁▁▁▁▁▁▁▁▁▁▁▁▁▁▁▁▁▁▁▁▁▁▁▁▁▁▁▁▁▁▁▁▁▁▁▁▁▁▁▁▁▁▁▁▁▁▁▁▁▁▁▁▁▁▁▁▁▁▁▁▁▁▁▁▁▁▁▁</text><text class="terminal-865166186-r15" x="1451.8" y="825.2" textLength="12.2" clip-path="url(#terminal-865166186-line-33)">▎</text>
    </g>
    </g>
</svg>
